<svg id="Icons" height="512" fill="gray" viewBox="0 0 74 74" width="512" xmlns="http://www.w3.org/2000/svg"><path d="m37.52 35.839h-.359a49.558 49.558 0 0 1 -17.492-3.549 49.442 49.442 0 0 0 -16.65-3.073 1 1 0 0 1 -.038-2 50.812 50.812 0 0 1 17.41 3.208 47.591 47.591 0 0 0 16.784 3.412c9.218.086 17.153-2.6 23.563-7.938a1 1 0 0 1 1.28 1.537c-6.699 5.576-14.94 8.402-24.498 8.403z"/><path d="m68.463 35.76c-6.453 0-10.62-6.072-10.817-6.366a1 1 0 0 1 1.659-1.117c.047.069 4.8 6.962 11.435 5.175a1 1 0 0 1 .52 1.93 10.668 10.668 0 0 1 -2.797.378z"/><path d="m64.739 42.133a.984.984 0 0 1 -.22-.025c-8.419-1.886-12.511-9.391-12.681-9.708a1 1 0 0 1 1.764-.942c.037.07 3.848 7.019 11.355 8.7a1 1 0 0 1 -.218 1.976z"/><path d="m55.178 46.653a1 1 0 0 1 -.532-.153 24.054 24.054 0 0 1 -9.464-12.241 1 1 0 0 1 1.912-.584 22.435 22.435 0 0 0 8.617 11.132 1 1 0 0 1 -.533 1.846z"/><path d="m45.879 48.333a1 1 0 0 1 -.707-.293c-6.457-6.458-5.918-13.1-5.891-13.38a1 1 0 0 1 1.991.183c0 .059-.445 6.023 5.314 11.782a1 1 0 0 1 -.707 1.708z"/><path d="m32.963 48.333a1 1 0 0 1 -.909-1.414c2.432-5.352 1.472-11.973 1.463-12.039a1 1 0 1 1 1.977-.3c.045.294 1.055 7.279-1.62 13.164a1 1 0 0 1 -.911.589z"/><path d="m23.664 46.653a1 1 0 0 1 -.8-1.6c.044-.059 4.412-5.985 4.462-11.217a1 1 0 0 1 1-.99h.01a1 1 0 0 1 .99 1.01c-.056 5.891-4.663 12.13-4.859 12.392a1 1 0 0 1 -.803.405z"/><path d="m14.173 43.941a1 1 0 0 1 -.637-1.772c.06-.049 5.975-4.968 7.778-10.319a1 1 0 0 1 1.895.639c-1.988 5.9-8.141 11.01-8.4 11.224a1 1 0 0 1 -.636.228z"/><path d="m6.1 40.751a1 1 0 0 1 -.463-1.887c.085-.044 8.43-4.429 9.839-9a1 1 0 1 1 1.911.588c-1.654 5.374-10.453 10-10.827 10.191a1 1 0 0 1 -.46.108z"/></svg>